<svg width="165" height="163" viewBox="0 0 165 163" fill="none" xmlns="http://www.w3.org/2000/svg">
<path d="M50.3564 9.60173C62.5119 -2.80528 82.4881 -2.80531 94.6436 9.60171L112.697 28.0282C115.92 31.318 119.835 33.8482 124.159 35.4351L143.769 42.6329C162.812 49.6225 170.121 72.716 158.568 89.3899L150.088 101.629C147.054 106.008 145.2 111.094 144.704 116.397L143.029 134.295C141.308 152.701 123.963 165.518 105.863 161.761L72.5 154.835L29.538 146.863C13.47 143.881 11.7081 121.555 27.1096 116.09V116.09C40.6012 111.303 41.4757 92.5549 28.4884 86.5323L13.4169 79.5433C-4.97476 71.0146 -3.88176 44.5096 15.1496 37.5242L21.9502 35.0281C25.5436 33.7092 28.798 31.6062 31.4768 28.8719L50.3564 9.60173Z" fill="#D9D9D9"/>
</svg>
